<?xml version="1.0" encoding="utf-8"?>
<!-- Generator: Adobe Illustrator 26.0.1, SVG Export Plug-In . SVG Version: 6.00 Build 0)  -->
<svg version="1.1" xmlns="http://www.w3.org/2000/svg" xmlns:xlink="http://www.w3.org/1999/xlink" x="0px" y="0px"
	 viewBox="0 0 620 143" style="enable-background:new 0 0 620 143;" xml:space="preserve">
<style type="text/css">
	.st0{display:none;}
	.st1{display:inline;}
	.st2{fill:#FFFFFF;}
	.st3{fill:#357DED;}
	.st4{display:none;fill:#1A1A1A;}
	.st5{fill:#1A1A1A;}
	.st6{fill:#FF0000;}
</style>
<g id="Capa_1" class="st0">
	<g class="st1">
		<g>
			<g>
				<path class="st2" d="M145.73,115.88l-3.27-15.31h-28.67l-8.63,15.31h-38.3L127.69,14.4H157l24.78,101.48H145.73z M135.96,69.74
					l-1.28-5.96l-3.38,5.96H135.96z"/>
				<path class="st3" d="M152.29,20.4l21.85,89.48h-23.55l-3.27-15.31h-37.02l-8.63,15.31h-24.2l53.64-89.48H152.29 M121.02,75.74
					h22.37l-6.15-28.65L121.02,75.74 M161.71,8.4h-9.42h-21.19h-6.8l-3.49,5.83l-53.64,89.48l-10.89,18.17h21.18h24.2h7.01l3.44-6.1
					l5.19-9.2h20.31l1.24,5.81l2.03,9.49h9.71h23.55h15.28l-3.62-14.85l-21.85-89.48L161.71,8.4L161.71,8.4z"/>
			</g>
		</g>
	</g>
	<g class="st1">
		<path class="st3" d="M191.28,19.82h22.23l15.88,44.59c2.54,6.99,4.06,12.83,4.06,12.83h0.25l11.18-57.42h21.47l-17.53,90.83
			h-22.23l-15.5-43.32c-2.29-6.22-4.45-14.48-4.45-14.48h-0.25l-11.18,57.8h-21.47L191.28,19.82z"/>
		<path class="st3" d="M275.49,19.82h22.1l-17.53,90.83h-22.23L275.49,19.82z"/>
		<path class="st3" d="M306.74,19.82h29.47l2.92,36.97c0.76,10.29,1.52,23.75,1.52,23.75h0.13c0,0,4.57-11.81,9.4-22.23l17.78-38.49
			h30.49l-17.53,90.83H360.6l8.64-44.84c1.4-7.11,4.19-19.18,4.19-19.18h-0.25c0,0-4.95,11.43-8.13,18.29l-20.96,45.73h-18.29
			l-3.56-45.86c-0.38-5.08-0.89-18.17-0.89-18.17h-0.25c0,0-2.29,13.08-3.43,19.05l-8.64,44.97h-19.82L306.74,19.82z"/>
		<path class="st3" d="M431.98,19.82h22.61l15.88,90.83h-22.99l-2.29-16.51h-30.74l-8,16.51h-22.48L431.98,19.82z M422.33,78.13
			h20.83l-2.92-21.85c-0.64-4.83-1.27-13.08-1.27-13.08h-0.25c0,0-3.56,8.38-5.72,12.96L422.33,78.13z"/>
		<path class="st3" d="M470.34,73.17c0-28.45,18.55-55.13,48.91-55.13c10.42,0,18.67,2.41,24.77,7.24
			c7.24,5.59,11.05,14.35,11.69,25.79h-22.1c-0.51-9.15-5.33-14.48-15.24-14.48c-17.78,0-25.41,19.18-25.41,36.08
			c0,11.43,4.57,21.72,17.91,21.72c9.53,0,16.51-5.46,19.18-15.24h22.23c-2.41,10.92-7.62,19.56-15.12,25.28
			c-7.62,5.72-16.39,8.26-27.06,8.26C485.58,112.68,470.34,97.69,470.34,73.17z"/>
		<path class="st3" d="M568.02,19.82h65.93l-3.56,18.29h-43.7l-3.18,16.64h37.6l-3.3,17.28h-37.73l-3.81,19.69h45.22l-3.68,18.93
			h-67.33L568.02,19.82z"/>
	</g>
</g>
<g id="Capa_2">
	<g>
		<path class="st4" d="M59.15,9.41h31.08l38.67,104.34h-32.4L91.4,98.43H56.09l-5.11,15.32H20.63L59.15,9.41z M62.95,77.42h21.6
			l-6.57-20.43c-1.61-5.11-3.94-13.43-3.94-13.43h-0.29c0,0-2.19,8.32-3.94,13.43L62.95,77.42z"/>
		<path class="st5" d="M155.91,49.54h0.44c5.98-8.17,13.57-12.55,23.93-12.55c17.22,0,26.12,11.53,26.12,28.6v48.16h-27.58V72.31
			c0-7.73-3.21-12.84-10.36-12.84c-7,0-11.24,6.13-11.24,14.16v40.13h-27.58V39.33h26.27V49.54z"/>
		<path class="st5" d="M212.09,9.41h27.58v20.87h-27.58V9.41z M212.09,39.33h27.58v74.42h-27.58V39.33z"/>
		<path class="st5" d="M245.95,39.33h26.27v11.09h0.44c5.25-8.61,12.4-13.43,23.64-13.43c9.92,0,17.37,4.82,21.16,12.99h0.44
			c6.42-9.92,14.74-12.99,24.37-12.99c18.24,0,26.12,12.84,26.12,29.92v46.84H340.8V72.02c0-7.59-2.48-12.55-9.49-12.55
			c-6.86,0-10.36,6.13-10.36,14.16v40.13h-27.58V72.02c0-7.59-2.48-12.55-9.49-12.55c-6.86,0-10.36,6.13-10.36,14.16v40.13h-27.58
			V39.33z"/>
		<path class="st5" d="M418.3,105.58H418c-4.96,6.86-12.84,10.07-22.47,10.07c-14.3,0-24.81-7.73-24.81-22.33
			c0-16.49,12.7-21.31,27-22.91c15.76-1.75,19.99-3.65,19.99-8.32c0-4.09-1.9-7.15-7.88-7.15c-5.98,0-9.05,3.5-9.78,8.9h-26.12
			c0.58-14.74,11.97-26.85,35.31-26.85c11.38,0,18.68,1.46,24.37,4.96c7.73,4.82,11.53,12.4,11.53,22.33v37.21
			c0,6.27,0.44,9.63,2.77,11.09v1.17h-27.14C419.76,112,418.88,109.67,418.3,105.58z M418.44,86.76v-6.57
			c-2.63,1.31-5.98,2.48-10.65,3.5c-8.03,1.75-10.51,4.09-10.51,8.46c0,4.96,4.09,7.15,8.61,7.15
			C412.31,99.31,418.44,95.66,418.44,86.76z"/>
		<path class="st5" d="M448.94,76.69c0-22.62,16.34-39.55,40.86-39.55c21.01,0,35.02,12.4,36.92,29.77h-26.56
			c-1.46-6.71-4.67-10.51-10.65-10.51c-8.46,0-12.55,7.73-12.55,20.28c0,12.4,4.38,19.99,12.84,19.99c6.71,0,10.07-4.52,10.8-12.99
			h26.56c0,18.39-15.03,32.4-37.36,32.4C465.29,116.09,448.94,99.31,448.94,76.69z"/>
		<path class="st5" d="M526.87,76.4c0-22.47,16.2-39.55,39.69-39.55c11.67,0,20.58,3.79,27.44,10.07
			c9.05,8.32,13.28,21.6,12.99,36.34h-53.12c1.6,8.61,6.27,13.86,14.59,13.86c4.82,0,8.32-1.9,10.36-5.55h26.7
			c-1.61,6.71-6.86,13.28-14.16,17.95c-6.86,4.38-14.3,6.27-23.79,6.27C543.22,115.8,526.87,99.16,526.87,76.4z M553.87,68.66h25.68
			c-1.17-8.32-5.84-13.28-12.4-13.28C559.56,55.38,555.33,60.49,553.87,68.66z"/>
	</g>
	<g>
		<circle class="st6" cx="66.5" cy="75" r="57"/>
	</g>
	<g>
		<path class="st2" d="M75.79,104.05h-0.29c-4.92,6.81-12.74,9.99-22.3,9.99c-14.19,0-24.61-7.67-24.61-22.15
			c0-16.36,12.6-21.14,26.79-22.73c15.64-1.74,19.84-3.62,19.84-8.25c0-4.05-1.88-7.09-7.82-7.09s-8.98,3.47-9.7,8.83H31.78
			c0.58-14.62,11.87-26.64,35.04-26.64c11.29,0,18.53,1.45,24.18,4.92c7.67,4.78,11.44,12.31,11.44,22.15v36.92
			c0,6.23,0.43,9.56,2.75,11v1.16H78.26C77.24,110.42,76.37,108.1,75.79,104.05z M75.94,85.37v-6.52c-2.61,1.3-5.94,2.46-10.57,3.47
			c-7.96,1.74-10.42,4.05-10.42,8.4c0,4.92,4.05,7.09,8.54,7.09C69.86,97.82,75.94,94.2,75.94,85.37z"/>
	</g>
</g>
</svg>
