<svg height="16" viewBox="0 0 16 16" width="16" xmlns="http://www.w3.org/2000/svg"><path d="m8 1.7c1.82253967 0 3.3 1.47746033 3.3 3.3v2h.4180574c.4457594 0 .6074025.04641281.7703655.13356635.1629629.08715355.2908572.21504784.3780107.3780108.0871536.16296296.1335664.32460608.1335664.77036545v3.1541722c0 .8915187-.0928256 1.214805-.2671327 1.5407309s-.4300957.5817145-.7560216.7560216-.6492122.2671327-1.5407309.2671327h-4.8722296c-.89151874 0-1.21480498-.0928256-1.5407309-.2671327-.32592593-.1743071-.5817145-.4300957-.7560216-.7560216-.17430709-.3259259-.2671327-.6492122-.2671327-1.5407309v-3.1541722c0-.44575937.04641281-.60740249.13356635-.77036545.08715355-.16296296.21504784-.29085725.3780108-.3780108.16296296-.08715354.32460608-.13356635.77036545-.13356635h.4180574v-2c0-1.82253967 1.47746033-3.3 3.3-3.3zm0 1.6c-.93888407 0-1.7.76111593-1.7 1.7v2h3.4v-2c0-.93888407-.76111593-1.7-1.7-1.7z" fill="#ff9d11"/></svg>