<svg height="16" viewBox="0 0 16 16" width="16" xmlns="http://www.w3.org/2000/svg"><path d="m13.5 8.8c.3865993 0 .7.31340068.7.7v4c0 .3865993-.3134007.7-.7.7h-4c-.38659932 0-.7-.3134007-.7-.7v-4c0-.38659932.31340068-.7.7-.7zm-7 0c.38659932 0 .7.31340068.7.7v4c0 .3865993-.31340068.7-.7.7h-4c-.38659932 0-.7-.3134007-.7-.7v-4c0-.38659932.31340068-.7.7-.7zm6.3 1.4h-2.6v2.6h2.6zm-7 0h-2.6v2.6h2.6zm7.7-8.4c.3865993 0 .7.31340068.7.7v4c0 .38659932-.3134007.7-.7.7h-4c-.38659932 0-.7-.31340068-.7-.7v-4c0-.38659932.31340068-.7.7-.7zm-7 0c.38659932 0 .7.31340068.7.7v4c0 .38659932-.31340068.7-.7.7h-4c-.38659932 0-.7-.31340068-.7-.7v-4c0-.38659932.31340068-.7.7-.7zm6.3 1.4h-2.6v2.6h2.6zm-7 0h-2.6v2.6h2.6z" fill="#32aaff"/></svg>