<svg height="16" viewBox="0 0 16 16" width="16" xmlns="http://www.w3.org/2000/svg"><path d="m6.5 8.8c.38659932 0 .7.31340068.7.7v4c0 .3865993-.31340068.7-.7.7h-4c-.38659932 0-.7-.3134007-.7-.7v-4c0-.38659932.31340068-.7.7-.7zm7 3.5c.3865993 0 .7.3134007.7.7 0 .3543827-.2633436.6472582-.6050141.6936098l-.0949859.0063902h-4c-.38659932 0-.7-.3134007-.7-.7 0-.3543827.26334362-.6472582.60501415-.6936098l.09498585-.0063902zm-7.7-2.1h-2.6v2.6h2.6zm7.7-.9c.3865993 0 .7.31340068.7.7 0 .3543827-.2633436.6472582-.6050141.6936098l-.0949859.0063902h-4c-.38659932 0-.7-.3134007-.7-.7 0-.35438271.26334362-.64725823.60501415-.69360983l.09498585-.00639017zm-7-7.5c.38659932 0 .7.31340068.7.7v4c0 .38659932-.31340068.7-.7.7h-4c-.38659932 0-.7-.31340068-.7-.7v-4c0-.38659932.31340068-.7.7-.7zm7 3.5c.3865993 0 .7.31340068.7.7 0 .35438271-.2633436.64725823-.6050141.69360983l-.0949859.00639017h-4c-.38659932 0-.7-.31340068-.7-.7 0-.35438271.26334362-.64725823.60501415-.69360983l.09498585-.00639017zm-7.7-2.1h-2.6v2.6h2.6zm7.7-.9c.3865993 0 .7.31340068.7.7 0 .35438271-.2633436.64725823-.6050141.69360983l-.0949859.00639017h-4c-.38659932 0-.7-.31340068-.7-.7 0-.35438271.26334362-.64725823.60501415-.69360983l.09498585-.00639017z" fill="#32aaff"/></svg>