<svg height="28" viewBox="0 0 28 28" width="28" xmlns="http://www.w3.org/2000/svg"><g fill="none" fill-rule="evenodd" transform="translate(2)"><path d="m12.0002 26.5313343v-12.5313093l10.971136-6.26639347v12.43962127z" fill="#d5f5ec"/><g transform="translate(-.000249 -.000225)"><path d="m11.9995 2.4385c-.133 0-.268.035-.387.104l-.001.001-9.346 5.391c-.24.139-.389.397-.389.674v10.782c0 .278.149.537.389.674l9.346 5.393c.239.137.537.14.776 0l9.347-5.393c.24-.137.389-.396.389-.674v-10.782c0-.277-.149-.535-.389-.674l-9.346-5.391c-.12-.07-.254-.105-.389-.105zm.001 24.677c-.403 0-.807-.103-1.168-.311l-9.345-5.392c-.719-.415-1.166-1.19-1.166-2.022v-10.782c0-.831.447-1.605 1.166-2.021l9.346-5.392c.72-.416 1.614-.416 2.333.001l9.345 5.391c.721.416 1.168 1.19 1.168 2.021v10.782c0 .832-.447 1.607-1.168 2.022l-9.345 5.392c-.359.209-.762.311-1.166.311z" fill="#4a4c57"/><path d="m18.7478 10.1042c.301.521.122 1.187-.398 1.488l-5.2615077 3.0367544.0005077 6.0743456c0 .602-.487 1.089-1.089 1.089s-1.089-.487-1.089-1.089l-.0005077-6.0743456-5.2604923-3.0367544c-.519-.301-.698-.967-.398-1.488.303-.521.97-.698 1.488-.399l5.2594923 3.0367544 5.2615077-3.0367544c.52-.299 1.186-.122 1.487.399z" fill="#2ecea0"/></g></g></svg>